<svg width="26" height="26" viewBox="0 0 26 26" fill="none" xmlns="http://www.w3.org/2000/svg">
<path d="M23.2142 6.26786C23.2142 5.34434 22.8473 4.45864 22.1943 3.80561C21.5413 3.15258 20.6556 2.78571 19.7321 2.78571H6.26779C5.34427 2.78571 4.45857 3.15258 3.80554 3.80561C3.15251 4.45864 2.78564 5.34434 2.78564 6.26786V19.7321C2.78564 20.6557 3.15251 21.5414 3.80554 22.1944C4.45857 22.8474 5.34427 23.2143 6.26779 23.2143H19.7321C20.6556 23.2143 21.5413 22.8474 22.1943 22.1944C22.8473 21.5414 23.2142 20.6557 23.2142 19.7321V6.26786ZM4.1785 10.2143H8.82136V15.7857H4.1785V10.2143ZM15.7856 15.7857H10.2142V10.2143H15.7856V15.7857ZM4.1785 17.1786H8.82136V21.8214H6.26779C5.71367 21.8214 5.18226 21.6013 4.79044 21.2095C4.39862 20.8177 4.1785 20.2863 4.1785 19.7321V17.1786ZM15.7856 21.8214H10.2142V17.1786H15.7856V21.8214ZM21.8214 19.7321C21.8214 20.2863 21.6012 20.8177 21.2094 21.2095C20.8176 21.6013 20.2862 21.8214 19.7321 21.8214H17.1785V17.1786H21.8214V19.7321ZM21.8214 10.2143V15.7857H17.1785V10.2143H21.8214ZM4.1785 6.26786C4.1785 5.71374 4.39862 5.18233 4.79044 4.79051C5.18226 4.39869 5.71367 4.17857 6.26779 4.17857H19.7321C20.2862 4.17857 20.8176 4.39869 21.2094 4.79051C21.6012 5.18233 21.8214 5.71374 21.8214 6.26786V8.82143H4.1785V6.26786Z" fill="#9197B3"/>
</svg>
