<svg width="22" height="22" viewBox="0 0 22 22" fill="none" xmlns="http://www.w3.org/2000/svg">
<path d="M2.12571 10.1559H8.02211C9.18425 10.1559 10.1297 9.2104 10.1297 8.04826V2.15187C10.1297 0.98969 9.18425 0.0442238 8.02211 0.0442238H2.12571C0.963569 0.0442238 0.0180664 0.98969 0.0180664 2.15187V8.04826C0.0180664 9.2104 0.963569 10.1559 2.12571 10.1559ZM1.57107 2.15187C1.57107 1.84554 1.81939 1.59722 2.12571 1.59722H8.02211C8.32843 1.59722 8.57675 1.84554 8.57675 2.15187V8.04826C8.57675 8.35459 8.32843 8.60291 8.02211 8.60291H2.12571C1.81939 8.60291 1.57107 8.35459 1.57107 8.04826V2.15187Z" fill="#9197B3"/>
<path d="M8.02217 10.174H2.12577C0.953623 10.174 0 9.22041 0 8.04826V2.15187C0 0.979687 0.953623 0.0261002 2.12577 0.0261002H8.02217C9.19431 0.0261002 10.1479 0.979723 10.1479 2.15187V8.04826C10.1479 9.22041 9.19431 10.174 8.02217 10.174ZM2.12577 0.0623513C0.973598 0.0623513 0.0362512 0.999698 0.0362512 2.15187V8.04826C0.0362512 9.20044 0.973598 10.1378 2.12577 10.1378H8.02217C9.17434 10.1378 10.1117 9.20044 10.1117 8.04826V2.15187C10.1117 0.999698 9.17434 0.0623513 8.02217 0.0623513H2.12577ZM8.02217 8.621H2.12577C1.80995 8.621 1.553 8.36405 1.553 8.04823V2.15187C1.553 1.83605 1.80995 1.5791 2.12577 1.5791H8.02217C8.33799 1.5791 8.59493 1.83605 8.59493 2.15187V8.04826C8.59493 8.36409 8.33799 8.621 8.02217 8.621ZM2.12577 1.61535C1.82992 1.61535 1.58925 1.85602 1.58925 2.15187V8.04826C1.58925 8.34411 1.82992 8.58478 2.12577 8.58478H8.02217C8.31801 8.58478 8.55868 8.34411 8.55868 8.04826V2.15187C8.55868 1.85602 8.31801 1.61535 8.02217 1.61535H2.12577Z" fill="#9197B3"/>
<path d="M19.8742 0.0442238H13.9778C12.8156 0.0442238 11.8701 0.989727 11.8701 2.15187V8.04826C11.8701 9.2104 12.8156 10.1559 13.9778 10.1559H19.8742C21.0364 10.1559 21.9818 9.2104 21.9818 8.04826V2.15187C21.9818 0.98969 21.0364 0.0442238 19.8742 0.0442238ZM20.4288 8.04826C20.4288 8.35459 20.1805 8.60291 19.8742 8.60291H13.9778C13.6715 8.60291 13.4231 8.35459 13.4231 8.04826V2.15187C13.4231 1.84554 13.6715 1.59722 13.9778 1.59722H19.8742C20.1805 1.59722 20.4288 1.84554 20.4288 2.15187V8.04826Z" fill="#9197B3"/>
<path d="M19.8742 10.174H13.9779C12.8057 10.174 11.8521 9.22041 11.8521 8.04826V2.15187C11.8521 0.979723 12.8057 0.0261002 13.9779 0.0261002H19.8742C21.0463 0.0261002 22 0.979723 22 2.15187V8.04826C22 9.22041 21.0463 10.174 19.8742 10.174ZM13.9779 0.0623513C12.8257 0.0623513 11.8883 0.999698 11.8883 2.15187V8.04826C11.8883 9.20044 12.8256 10.1378 13.9779 10.1378H19.8742C21.0264 10.1378 21.9637 9.20044 21.9637 8.04826V2.15187C21.9637 0.999698 21.0264 0.0623513 19.8742 0.0623513H13.9779ZM19.8742 8.621H13.9779C13.662 8.621 13.405 8.36405 13.405 8.04823V2.15187C13.405 1.83605 13.662 1.5791 13.9779 1.5791H19.8742C20.19 1.5791 20.447 1.83605 20.447 2.15187V8.04826C20.447 8.36409 20.19 8.621 19.8742 8.621ZM13.9779 1.61535C13.682 1.61535 13.4413 1.85602 13.4413 2.15187V8.04826C13.4413 8.34411 13.682 8.58478 13.9779 8.58478H19.8742C20.17 8.58478 20.4107 8.34411 20.4107 8.04826V2.15187C20.4107 1.85602 20.17 1.61535 19.8742 1.61535H13.9779Z" fill="#9197B3"/>
<path d="M2.12571 21.9558H8.02211C9.18425 21.9558 10.1297 21.0103 10.1297 19.8482V13.9518C10.1297 12.7896 9.18425 11.8441 8.02211 11.8441H2.12571C0.963569 11.8441 0.0180664 12.7896 0.0180664 13.9518V19.8482C0.0180664 21.0103 0.963569 21.9558 2.12571 21.9558ZM1.57107 13.9518C1.57107 13.6455 1.81939 13.3971 2.12571 13.3971H8.02211C8.32843 13.3971 8.57675 13.6455 8.57675 13.9518V19.8482C8.57675 20.1545 8.32843 20.4028 8.02211 20.4028H2.12571C1.81939 20.4028 1.57107 20.1545 1.57107 19.8482V13.9518Z" fill="#9197B3"/>
<path d="M8.02217 21.9739H2.12577C0.953623 21.9739 0 21.0203 0 19.8482V13.9518C0 12.7796 0.953623 11.826 2.12577 11.826H8.02217C9.19431 11.826 10.1479 12.7796 10.1479 13.9518V19.8482C10.1479 21.0203 9.19431 21.9739 8.02217 21.9739ZM2.12577 11.8622C0.973598 11.8622 0.0362512 12.7996 0.0362512 13.9518V19.8482C0.0362512 21.0003 0.973598 21.9376 2.12577 21.9376H8.02217C9.17434 21.9376 10.1117 21.0003 10.1117 19.8482V13.9518C10.1117 12.7996 9.17434 11.8622 8.02217 11.8622H2.12577V11.8622ZM8.02217 20.4209H2.12577C1.80995 20.4209 1.553 20.164 1.553 19.8482V13.9518C1.553 13.6359 1.80995 13.379 2.12577 13.379H8.02217C8.33799 13.379 8.59493 13.6359 8.59493 13.9518V19.8482C8.59493 20.164 8.33799 20.4209 8.02217 20.4209ZM2.12577 13.4152C1.82992 13.4152 1.58925 13.6559 1.58925 13.9518V19.8482C1.58925 20.144 1.82992 20.3846 2.12577 20.3846H8.02217C8.31801 20.3846 8.55868 20.144 8.55868 19.8482V13.9518C8.55868 13.6559 8.31801 13.4152 8.02217 13.4152H2.12577Z" fill="#9197B3"/>
<path d="M19.8742 11.8441H13.9778C12.8156 11.8441 11.8701 12.7896 11.8701 13.9518V19.8482C11.8701 21.0104 12.8156 21.9558 13.9778 21.9558H19.8742C21.0364 21.9558 21.9818 21.0104 21.9818 19.8482V13.9518C21.9818 12.7896 21.0364 11.8441 19.8742 11.8441ZM20.4288 19.8482C20.4288 20.1545 20.1805 20.4028 19.8742 20.4028H13.9778C13.6715 20.4028 13.4231 20.1545 13.4231 19.8482V13.9518C13.4231 13.6455 13.6715 13.3971 13.9778 13.3971H19.8742C20.1805 13.3971 20.4288 13.6455 20.4288 13.9518V19.8482Z" fill="#9197B3"/>
<path d="M19.8742 21.9739H13.9779C12.8057 21.9739 11.8521 21.0203 11.8521 19.8482V13.9518C11.8521 12.7796 12.8057 11.826 13.9779 11.826H19.8742C21.0463 11.826 22 12.7796 22 13.9518V19.8482C22 21.0203 21.0463 21.9739 19.8742 21.9739ZM13.9779 11.8622C12.8257 11.8622 11.8883 12.7996 11.8883 13.9518V19.8482C11.8883 21.0003 12.8256 21.9377 13.9779 21.9377H19.8742C21.0264 21.9377 21.9637 21.0004 21.9637 19.8482V13.9518C21.9637 12.7996 21.0264 11.8622 19.8742 11.8622H13.9779V11.8622ZM19.8742 20.4209H13.9779C13.662 20.4209 13.405 20.164 13.405 19.8482V13.9518C13.405 13.6359 13.662 13.379 13.9779 13.379H19.8742C20.19 13.379 20.447 13.6359 20.447 13.9518V19.8482C20.447 20.164 20.19 20.4209 19.8742 20.4209ZM13.9779 13.4152C13.682 13.4152 13.4413 13.6559 13.4413 13.9518V19.8482C13.4413 20.144 13.682 20.3846 13.9779 20.3846H19.8742C20.17 20.3846 20.4107 20.144 20.4107 19.8482V13.9518C20.4107 13.6559 20.17 13.4152 19.8742 13.4152H13.9779Z" fill="#9197B3"/>
</svg>
